<svg xmlns="http://www.w3.org/2000/svg" viewBox="0 0 128 128">
  <path fill="#326ce5" d="M64.1 2.5L20.2 18.1c-1.3.5-2.4 1.4-3.1 2.6L2.5 59.8c-.7 1.4-.7 3.1 0 4.5l14.6 39.1c.7 1.2 1.8 2.1 3.1 2.6l43.9 15.6c1.4.5 3.1.5 4.5 0l43.9-15.6c1.3-.5 2.4-1.4 3.1-2.6l14.6-39.1c.7-1.4.7-3.1 0-4.5L110.6 20.7c-.7-1.2-1.8-2.1-3.1-2.6L64.1 2.5z"/>
  <path fill="#fff" d="M84.4 64.1c0-11.2-9.1-20.3-20.3-20.3s-20.3 9.1-20.3 20.3 9.1 20.3 20.3 20.3 20.3-9.1 20.3-20.3zm-31.5 0c0-6.2 5-11.2 11.2-11.2s11.2 5 11.2 11.2-5 11.2-11.2 11.2-11.2-5-11.2-11.2z"/>
  <path fill="#fff" d="M64.1 34.6c2.5 0 4.5-2 4.5-4.5v-6.7c0-2.5-2-4.5-4.5-4.5s-4.5 2-4.5 4.5v6.7c0 2.5 2 4.5 4.5 4.5zm25.5 10.6c1.8 1.8 4.7 1.8 6.4 0l4.7-4.7c1.8-1.8 1.8-4.7 0-6.4s-4.7-1.8-6.4 0l-4.7 4.7c-1.8 1.8-1.8 4.7 0 6.4zM100.1 64c0-2.5 2-4.5 4.5-4.5h6.7c2.5 0 4.5 2 4.5 4.5s-2 4.5-4.5 4.5h-6.7c-2.5.1-4.5-1.9-4.5-4.5zm-10.5 25.5c-1.8 1.8-1.8 4.7 0 6.4l4.7 4.7c1.8 1.8 4.7 1.8 6.4 0s1.8-4.7 0-6.4l-4.7-4.7c-1.8-1.8-4.7-1.8-6.4 0zM64.1 93.4c-2.5 0-4.5 2-4.5 4.5v6.7c0 2.5 2 4.5 4.5 4.5s4.5-2 4.5-4.5v-6.7c0-2.5-2-4.5-4.5-4.5zm-25.5-10.6c-1.8-1.8-4.7-1.8-6.4 0l-4.7 4.7c-1.8 1.8-1.8 4.7 0 6.4s4.7 1.8 6.4 0l4.7-4.7c1.8-1.8 1.8-4.7 0-6.4zM28.1 64c0 2.5-2 4.5-4.5 4.5h-6.7C14.4 68.5 12.4 66.5 12.4 64s2-4.5 4.5-4.5h6.7c2.5 0 4.5 2 4.5 4.5zm10.5-25.5c1.8-1.8 1.8-4.7 0-6.4l-4.7-4.7c-1.8-1.8-4.7-1.8-6.4 0s-1.8 4.7 0 6.4l4.7 4.7c1.8 1.8 4.7 1.8 6.4 0z"/>
</svg>
