<svg xmlns="http://www.w3.org/2000/svg" viewBox="0 0 2500 2500">
  <path fill="#83cd29" d="M1250 2500c-35.3 0-70.1-9.4-100.8-27.1L183.8 1913.6c-61.5-35.5-99.3-101-99.3-172V658.4c0-71 37.8-136.5 99.3-172L1149.2 27.1c61.5-35.5 137-35.5 198.5 0l965.4 559.3c61.5 35.5 99.3 101 99.3 172V1741.6c0 71-37.8 136.5-99.3 172l-965.4 559.3c-30.7 17.7-65.5 27.1-100.8 27.1h2.1zm-864.7-758.4l864.7 501.1 864.7-501.1V758.4L1250 257.3 385.3 758.4v983.2z"/>
  <path fill="#83cd29" d="M1020.2 1533.3c0 231.2-116.7 342-321.4 342-124 0-221-39.4-282.3-110.9l115.3-132.8c42.3 51 97.8 84.6 156.1 84.6 86.1 0 132.8-40.9 132.8-135.7V759.9h199.5v773.4zM1612.3 1875.3c-186.8 0-311.1-99.3-333.1-249.5l182.4-78.8c13.1 71.5 67.1 118.2 143 118.2 64.2 0 106.5-29.2 106.5-74.4 0-51.1-40.9-68.6-140.1-112.4-144.5-62.7-236.4-124.1-236.4-284.5 0-148.9 113.8-246.6 290.4-246.6 157.6 0 259.7 75.9 291.8 205.8l-175.1 89c-11.7-61.3-51.1-91.9-115.3-91.9-56.9 0-94.8 27.7-94.8 67.1 0 45.2 32.1 61.3 128.4 103.6 163.4 71.5 251 131.3 251 294.7 0 170.8-124 259.7-298.7 259.7z"/>
</svg>
